<?xml version="1.0" encoding="UTF-8" standalone="no"?>
<svg
   sodipodi:docname="icon drawing.svg"
   inkscape:version="1.5-dev (755fd87, 2025-05-05, custom)"
   id="svg8"
   version="1.1"
   viewBox="0 0 4.2333332 4.2333332"
   height="16"
   width="16"
   inkscape:export-batch-path="C:\Users\eric\io\prj\gfx\_ done\mainhatten"
   xmlns:inkscape="http://www.inkscape.org/namespaces/inkscape"
   xmlns:sodipodi="http://sodipodi.sourceforge.net/DTD/sodipodi-0.dtd"
   xmlns="http://www.w3.org/2000/svg"
   xmlns:svg="http://www.w3.org/2000/svg"
   xmlns:rdf="http://www.w3.org/1999/02/22-rdf-syntax-ns#"
   xmlns:cc="http://creativecommons.org/ns#"
   xmlns:dc="http://purl.org/dc/elements/1.1/">
  <defs
     id="defs2" />
  <sodipodi:namedview
     showborder="false"
     inkscape:showpageshadow="false"
     units="px"
     inkscape:window-maximized="1"
     inkscape:window-y="-9"
     inkscape:window-x="-9"
     inkscape:window-height="1440"
     inkscape:window-width="3440"
     fit-margin-bottom="0"
     fit-margin-right="0"
     fit-margin-left="0"
     fit-margin-top="0"
     lock-margins="true"
     inkscape:snap-global="true"
     showgrid="false"
     inkscape:document-rotation="0"
     inkscape:current-layer="layer1"
     inkscape:document-units="mm"
     inkscape:cy="8.4963299"
     inkscape:cx="39.653222"
     inkscape:zoom="45.254834"
     inkscape:pageshadow="2"
     inkscape:pageopacity="0.0"
     borderopacity="1.0"
     bordercolor="#666666"
     pagecolor="#ffffff"
     id="base"
     inkscape:pagecheckerboard="0"
     inkscape:deskcolor="#d1d1d1">
    <inkscape:grid
       originy="0"
       originx="0"
       id="grid833"
       type="xygrid"
       spacingy="0.264583"
       spacingx="0.264583"
       units="px"
       visible="false" />
  </sodipodi:namedview>
  <metadata
     id="metadata5">
    <rdf:RDF>
      <cc:Work
         rdf:about="">
        <dc:format>image/svg+xml</dc:format>
        <dc:type
           rdf:resource="http://purl.org/dc/dcmitype/StillImage" />
        <dc:title />
      </cc:Work>
    </rdf:RDF>
  </metadata>
  <g
     id="layer1"
     inkscape:groupmode="layer"
     inkscape:label="Layer 1">
    <rect
       rx="0.52916646"
       ry="0.52916664"
       y="-1.174986e-16"
       x="-5.5562501"
       height="4.7624998"
       width="4.7624998"
       id="rect861"
       style="fill:#ed3a00;fill-opacity:1;stroke-width:1.964;stroke-linecap:square;stroke-linejoin:round;paint-order:markers stroke fill" />
    <path
       sodipodi:nodetypes="ccccccccccccc"
       id="path835"
       d="M -4.7625,3.175 V 1.8520833 h 1.0583333 V 1.3229166 l -0.79375,10e-8 -4.2e-6,-0.52916655 L -3.175,0.79375 V 0.26458323 l -1.8520834,1.1e-7 V 1.3229166 l -0.2645833,10e-8 V 3.175 Z"
       style="fill:#ffffff;fill-opacity:1;stroke-width:1.964;stroke-linecap:square;stroke-linejoin:round;paint-order:markers stroke fill" />
    <path
       d="M -3.4395833,1.0583334 V 1.3229167 H -3.175 V 1.0583334 Z m 0,1.3229166 H -3.175 V 1.5875 h -0.2645833 z"
       style="fill:#ffffff;fill-opacity:1;stroke-width:1.964;stroke-linecap:square;stroke-linejoin:round;paint-order:markers stroke fill"
       id="path837"
       sodipodi:nodetypes="cccccccccc" />
    <path
       style="fill:#ffffff;fill-opacity:1;stroke-width:1.964;stroke-linecap:square;stroke-linejoin:round;paint-order:markers stroke fill"
       d="m -2.6458333,0.79375 -4.2e-6,1.3229167 h 0.5291708 v 0.2645834 h -0.79375 l 10e-8,-1.5875001 z"
       id="path839"
       sodipodi:nodetypes="ccccccc" />
    <path
       sodipodi:nodetypes="ccccccccccccc"
       id="path841"
       d="m -1.3229167,1.0554456 v 0.2674711 h -0.79375 V 1.5875001 H -1.5875 v 0.5291666 h 0.5291666 v 0.2645834 h -0.79375 V 1.8520834 H -2.38125 v -0.79375 z"
       style="fill:#ffffff;fill-opacity:1;stroke-width:1.964;stroke-linecap:square;stroke-linejoin:round;paint-order:markers stroke fill" />
    <path
       sodipodi:nodetypes="ccccccccccccccccc"
       d="m -4.4979167,2.1166667 1e-7,1.5875 h 1.0583333 l -1e-7,-1.0583334 H -3.7041667 V 2.1166667 Z M -4.2333334,2.38125 h 0.2645833 l 10e-8,0.2645834 h -0.2645834 z m 0,0.5291667 h 0.5291667 l 10e-8,0.5291667 h -0.5291667 z"
       style="fill:#ffffff;fill-opacity:1;stroke-width:1.964;stroke-linecap:square;stroke-linejoin:round;paint-order:markers stroke fill"
       id="path843" />
    <path
       id="path851"
       d="m -3.1750001,2.6458334 1e-7,1.0583334 h 0.2645833 l -1e-7,-0.7937501 h 0.2645834 V 2.6458334 Z"
       style="fill:#ffffff;fill-opacity:1;stroke-width:1.964;stroke-linecap:square;stroke-linejoin:round;paint-order:markers stroke fill"
       sodipodi:nodetypes="ccccccc" />
    <path
       d="m -2.3812501,2.6458333 10e-8,1.0583334 h 0.79375 l -1e-7,-1.0583334 z m 0.2645834,0.2645834 h 0.2645833 l 10e-8,0.5291667 h -0.2645833 z"
       style="fill:#ffffff;fill-opacity:1;stroke-width:1.964;stroke-linecap:square;stroke-linejoin:round;paint-order:markers stroke fill"
       id="path853"
       sodipodi:nodetypes="cccccccccc" />
    <rect
       rx="0.26458359"
       ry="0.26458335"
       y="-6.6666694e-09"
       x="-4.5254261e-08"
       height="4.2333336"
       width="4.2333336"
       id="rect16"
       style="fill:#00ed5c;fill-opacity:1;stroke-width:1.964;stroke-linecap:square;stroke-linejoin:round;paint-order:markers stroke fill" />
    <path
       sodipodi:nodetypes="ccccccccccccccc"
       id="path18"
       d="m 0.79375,2.6458333 1e-7,-1.0583333 H 1.5874999 L 1.5875,1.0583333 H 0.79375 l 1e-7,-0.26458319 0.9341989,-1.1e-7 -4.3e-6,-0.52916662 -1.19877807,10e-9 4e-8,0.26458328 H 0.26458333 V 1.0583333 1.3229167 l -1.6e-7,1.3229166 z"
       style="fill:#ffffff;fill-opacity:1;stroke-width:1.964;stroke-linecap:square;stroke-linejoin:round;paint-order:markers stroke fill" />
    <path
       d="M 1.8520834,0.79375003 V 1.0583333 H 2.1166667 V 0.79375003 Z m 0,1.32291657 h 0.2645833 v -0.79375 H 1.8520834 v 0.5431999 z"
       style="fill:#ffffff;fill-opacity:1;stroke-width:1.964;stroke-linecap:square;stroke-linejoin:round;paint-order:markers stroke fill"
       id="path20"
       sodipodi:nodetypes="ccccccccccc" />
    <path
       style="fill:#ffffff;fill-opacity:1;stroke-width:1.964;stroke-linecap:square;stroke-linejoin:round;paint-order:markers stroke fill"
       d="m 2.6458334,0.52916659 -4.2e-6,1.32291671 0.2645874,-1e-7 v 0.2645834 l -0.5291666,1e-7 10e-8,-1.58750011 z"
       id="path22"
       sodipodi:nodetypes="ccccccc" />
    <path
       sodipodi:nodetypes="ccccccccccccc"
       id="path24"
       d="M 3.96875,0.79086223 V 1.0583333 H 3.175 v 0.2645834 l 0.2645834,-10e-8 V 1.8520832 H 3.96875 V 2.1166666 H 3.175 V 1.5874999 L 2.9104167,1.5875 V 0.79375003 Z"
       style="fill:#ffffff;fill-opacity:1;stroke-width:1.964;stroke-linecap:square;stroke-linejoin:round;paint-order:markers stroke fill" />
    <path
       sodipodi:nodetypes="cccccccccccc"
       d="m 1.0583332,1.8520833 10e-8,1.5875 h 0.7937501 l -10e-8,-1.0583334 -0.5291666,1e-7 V 1.8520834 Z m 0.2645834,0.79375 H 1.5875 l 1e-7,0.5291667 H 1.3229167 Z"
       style="fill:#ffffff;fill-opacity:1;stroke-width:1.964;stroke-linecap:square;stroke-linejoin:round;paint-order:markers stroke fill"
       id="path26" />
    <path
       id="path28"
       d="m 2.1166666,2.38125 1e-7,1.0583334 H 2.38125 l -1e-7,-0.7937501 H 2.6458333 V 2.38125 Z"
       style="fill:#ffffff;fill-opacity:1;stroke-width:1.964;stroke-linecap:square;stroke-linejoin:round;paint-order:markers stroke fill"
       sodipodi:nodetypes="ccccccc" />
    <path
       d="m 2.9104166,2.3812499 10e-8,1.0583334 h 0.79375 l -10e-8,-1.0583334 z M 3.175,2.6458333 h 0.2645833 l 1e-7,0.5291667 H 3.1750001 Z"
       style="fill:#ffffff;fill-opacity:1;stroke-width:1.964;stroke-linecap:square;stroke-linejoin:round;paint-order:markers stroke fill"
       id="path30"
       sodipodi:nodetypes="cccccccccc" />
    <rect
       rx="0.26458359"
       ry="0.26458335"
       y="0"
       x="6.0854092"
       height="4.2333336"
       width="4.2333336"
       id="rect1"
       style="fill:#4249a9;fill-opacity:1;stroke-width:1.964;stroke-linecap:square;stroke-linejoin:round;paint-order:markers stroke fill" />
    <rect
       style="fill:#ffffff;fill-opacity:1;fill-rule:evenodd;stroke-width:0.503116;stroke-linecap:round;stroke-linejoin:bevel"
       id="rect2"
       width="1.3229152"
       height="0.26458299"
       x="6.3499918"
       y="1.058332" />
    <path
       id="rect3"
       style="fill:#ffffff;fill-rule:evenodd;stroke-width:0.503116;stroke-linecap:round;stroke-linejoin:bevel"
       d="M 6.7534578,0.94575851 7.5943588,0.68564913 7.6586705,0.91515299 7.143741,1.058332 V 1.852081 H 6.7534578 Z"
       sodipodi:nodetypes="ccccccc" />
    <rect
       style="fill:#ffffff;fill-opacity:1;fill-rule:evenodd;stroke-width:0.275568;stroke-linecap:round;stroke-linejoin:bevel"
       id="rect4"
       width="0.39687434"
       height="0.26458299"
       x="7.8051987"
       y="0.66145748" />
    <rect
       style="fill:#ffffff;fill-opacity:1;fill-rule:evenodd;stroke-width:0.616189;stroke-linecap:round;stroke-linejoin:bevel"
       id="rect5"
       width="0.39687434"
       height="0.79374903"
       x="7.8051987"
       y="1.058332" />
    <rect
       style="fill:#ffffff;fill-opacity:1;fill-rule:evenodd;stroke-width:0.615625;stroke-linecap:round;stroke-linejoin:bevel"
       id="rect6"
       width="0.3968741"
       height="1.188445"
       x="8.3343649"
       y="0.66363603" />
    <path
       id="path7"
       style="fill:#ffffff;fill-rule:evenodd;stroke-width:0.503116;stroke-linecap:round;stroke-linejoin:bevel"
       d="M 10.054153,1.9876776 H 9.78957 l -0.6614568,0.1322914 1e-7,0.6614575 0.3968747,-0.00661 0.529166,-0.173116 z M 9.4628553,2.2522606 H 10.01615 L 9.462867,2.4538 Z"
       sodipodi:nodetypes="ccccccccccc" />
    <path
       id="rect8"
       style="fill:#ffffff;fill-rule:evenodd;stroke-width:0.450001;stroke-linecap:round;stroke-linejoin:bevel"
       d="m 7.2767775,1.4552064 h 0.3961297 l -2e-7,1.0283598 0.529166,-0.2604489 V 2.5135385 L 7.6729072,2.7781214 H 7.2767775 Z"
       sodipodi:nodetypes="cccccccc" />
    <rect
       style="fill:#ffffff;fill-opacity:1;fill-rule:evenodd;stroke-width:0.450001;stroke-linecap:round;stroke-linejoin:bevel"
       id="rect9"
       width="1.8520812"
       height="0.26458284"
       x="6.3499918"
       y="1.9843727" />
    <path
       id="rect10"
       style="fill:#ffffff;fill-rule:evenodd;stroke-width:0.450001;stroke-linecap:round;stroke-linejoin:bevel"
       d="m 8.3343648,2.1554112 0.5101987,-0.1719662 0.1921838,9.274e-4 3e-7,0.2645831 -0.3427152,10e-8 -3e-7,0.5291659 H 8.3343645 Z"
       sodipodi:nodetypes="cccccccc" />
    <path
       id="path10"
       style="fill:#ffffff;fill-rule:evenodd;stroke-width:0.503116;stroke-linecap:round;stroke-linejoin:bevel"
       d="M 9.786636,0.85221321 9.507483,0.85575421 8.8613516,1.0466383 V 1.7073517 L 9.225326,1.8520813 H 9.655102 V 1.587498 H 9.225326 V 1.525349 L 9.786636,1.3434632 Z M 9.225314,1.137258 9.751545,1.128488 9.225326,1.3387972 Z"
       sodipodi:nodetypes="ccccccccccccccc" />
    <rect
       rx="0.26458359"
       ry="0.26458335"
       y="0"
       x="10.7983"
       height="4.2333336"
       width="4.2333336"
       id="rect11"
       style="fill:#4249a9;fill-opacity:1;stroke-width:1.964;stroke-linecap:square;stroke-linejoin:round;paint-order:markers stroke fill" />
    <rect
       style="fill:#ffffff;fill-opacity:1;fill-rule:evenodd;stroke-width:0.554134;stroke-linecap:round;stroke-linejoin:bevel"
       id="rect12"
       width="1.4570645"
       height="0.29141283"
       x="10.7983"
       y="1.2397954" />
    <path
       id="path12"
       style="fill:#ffffff;fill-rule:evenodd;stroke-width:0.554134;stroke-linecap:round;stroke-linejoin:bevel"
       d="m 11.242678,1.1158067 0.926172,-0.28648565 0.07083,0.25277655 -0.567145,0.157698 v 0.8742386 h -0.42986 z"
       sodipodi:nodetypes="ccccccc" />
    <rect
       style="fill:#ffffff;fill-opacity:1;fill-rule:evenodd;stroke-width:0.303512;stroke-linecap:round;stroke-linejoin:bevel"
       id="rect13"
       width="0.4371191"
       height="0.29141283"
       x="12.401071"
       y="0.80267626" />
    <rect
       style="fill:#ffffff;fill-opacity:1;fill-rule:evenodd;stroke-width:0.678673;stroke-linecap:round;stroke-linejoin:bevel"
       id="rect14"
       width="0.4371191"
       height="0.87423861"
       x="12.401071"
       y="1.2397954" />
    <path
       id="rect15"
       style="fill:#ffffff;fill-rule:evenodd;stroke-width:0.678052;stroke-linecap:round;stroke-linejoin:bevel"
       d="M 12.983898,0.95803795 13.421017,0.80507572 V 2.1140342 l -0.437119,0.1529622 z"
       sodipodi:nodetypes="ccccc" />
    <path
       id="path15"
       style="fill:#ffffff;fill-rule:evenodd;stroke-width:0.554134;stroke-linecap:round;stroke-linejoin:bevel"
       d="m 14.878079,2.2633808 h -0.291413 l -0.728532,0.1457063 v 0.7285322 l 0.43712,-0.00728 0.582826,-0.1906707 z m -0.651258,0.2914129 h 0.609401 L 14.226834,2.77677 Z"
       sodipodi:nodetypes="ccccccccccc" />
    <path
       id="path16"
       style="fill:#ffffff;fill-rule:evenodd;stroke-width:0.495633;stroke-linecap:round;stroke-linejoin:bevel"
       d="m 11.819065,1.6769148 h 0.436299 V 2.8095547 L 12.83819,2.5226951 V 2.8425663 L 12.255364,3.133979 h -0.436299 z"
       sodipodi:nodetypes="cccccccc" />
    <rect
       style="fill:#ffffff;fill-opacity:1;fill-rule:evenodd;stroke-width:0.495633;stroke-linecap:round;stroke-linejoin:bevel"
       id="rect17"
       width="2.0398901"
       height="0.29141268"
       x="10.7983"
       y="2.2597408" />
    <path
       id="path17"
       style="fill:#ffffff;fill-rule:evenodd;stroke-width:0.495633;stroke-linecap:round;stroke-linejoin:bevel"
       d="m 12.983896,2.4481233 0.561935,-0.1894043 0.211673,0.00102 v 0.2914144 l -0.377468,10e-8 v 0.5828256 h -0.39614 z"
       sodipodi:nodetypes="cccccccc" />
    <path
       id="path19"
       style="fill:#ffffff;fill-rule:evenodd;stroke-width:0.554134;stroke-linecap:round;stroke-linejoin:bevel"
       d="m 14.583434,1.0127755 -0.30746,0.0039 -0.711652,0.2102406 v 0.7277126 l 0.400883,0.1594058 h 0.473357 V 1.8226213 h -0.473357 v -0.068451 l 0.618229,-0.2003298 z m -0.618242,0.3139495 0.579593,-0.00966 -0.57958,0.2316355 z"
       sodipodi:nodetypes="ccccccccccccccc" />
  </g>
</svg>
